<svg xmlns="http://www.w3.org/2000/svg" viewBox="0 0 64 64" fill="none" stroke="currentColor" stroke-width="1.5" stroke-linecap="round" stroke-linejoin="round">
  <ellipse cx="32" cy="36" rx="18" ry="22"/>
  <path d="M24 32c0-1.5 1.5-3 3-3s3 1.5 3 3"/>
  <path d="M34 32c0-1.5 1.5-3 3-3s3 1.5 3 3"/>
  <path d="M26 42c3 3 9 3 12 0"/>
  <path d="M14 24c0-6 4-10 9-10"/>
  <path d="M50 24c0-6-4-10-9-10"/>
  <circle cx="12" cy="20" r="2" fill="currentColor"/>
  <circle cx="52" cy="20" r="2" fill="currentColor"/>
  <path d="M12 20c-2 2-2 6 0 8"/>
  <path d="M52 20c2 2 2 6 0 8"/>
</svg>
